#!OML:ASF G:\JayActor3\Patient Classification 1\Patient 1\Session 2\male.ASF
:FULLY-SPECIFIED
:DEGREES
1103
root 39.6985 16.6831 -0.373666 -894.499 65.4331 -169.881
lowerback 4.98146 -1.02263 0.776769
upperback 4.33134 -1.19753 1.70799
thorax 1.68196 -0.539197 1.36177
lowerneck -9.79513 2.96565 3.43227
upperneck 18.8348 5.32536 -7.17808
head 7.69113 2.29282 -2.39822
rclavicle 5.65915e-015 -9.39258e-015
rhumerus -22.6382 18.1086 -82.0304
rradius 51.6036
rwrist -10.1525
rhand -10.9635 8.88725
rfingers 7.12502
rthumb 15.0557 -20.5453
lclavicle 5.65915e-015 -9.39258e-015
lhumerus -24.5079 -13.099 82.8386
lradius 18.5988
lwrist 9.34148
lhand -30.8354 21.8617
lfingers 7.12502
lthumb -4.12419 51.8015
rfemur -9.33596 2.77058 26.3338
rtibia 36.3333
rfoot -17.7815 -1.83393
rtoes 16.8946
lfemur -27.2608 13.8729 -18.182
ltibia 60.3586
lfoot -11.1635 12.3848
ltoes -12.2123
1104
root 39.8647 16.6775 -0.425495 -894.32 65.2183 -169.625
lowerback 4.87555 -0.846177 1.07027
upperback 4.38155 -0.952768 1.7384
thorax 1.78389 -0.408202 1.2187
lowerneck -9.86946 2.90454 3.418
upperneck 19.019 5.28145 -7.24451
head 7.76404 2.26489 -2.42175
rclavicle -3.47438e-014 -3.03147e-015
rhumerus -21.7749 18.4978 -81.4728
rradius 52.8216
rwrist -10.2038
rhand -10.8472 8.77604
rfingers 7.12502
rthumb 15.1677 -20.6481
lclavicle -3.47438e-014 -3.03147e-015
lhumerus -24.2133 -12.7957 81.2196
lradius 17.5421
lwrist 7.90437
lhand -29.6985 21.3708
lfingers 7.12502
lthumb -3.02633 51.3291
rfemur -8.42902 2.21478 26.5659
rtibia 36.0158
rfoot -18.0817 -1.56222
rtoes 17.1497
lfemur -27.8021 13.6671 -18.516
ltibia 57.9859
lfoot -11.7834 13.0553
ltoes -12.0099
1105
root 40.0308 16.672 -0.478568 -894.092 64.9551 -169.316
lowerback 4.77559 -0.699882 1.38166
upperback 4.42868 -0.748125 1.77682
thorax 1.88204 -0.296479 1.07612
lowerneck -9.93864 2.85112 3.39729
upperneck 19.171 5.24178 -7.29297
head 7.82513 2.24007 -2.43794
rclavicle 1.30204e-014 -2.22639e-014
rhumerus -20.882 18.9192 -80.903
rradius 53.959
rwrist -10.2054
rhand -10.7709 8.67572
rfingers 7.12502
rthumb 15.2412 -20.7428
lclavicle 1.30204e-014 -2.22639e-014
lhumerus -23.9807 -12.5776 79.6393
lradius 16.6634
lwrist 6.39073
lhand -28.5619 20.9479
lfingers 7.12502
lthumb -1.92863 50.9189
rfemur -7.49927 1.57234 26.8058
rtibia 35.6454
rfoot -18.3359 -1.26868
rtoes 17.4581
lfemur -28.2343 13.4599 -18.8483
ltibia 55.4442
lfoot -12.1426 13.6864
ltoes -12.5033
1106
root 40.1982 16.666 -0.53387 -893.813 64.658 -168.95
lowerback 4.65877 -0.578829 1.71532
upperback 4.47418 -0.577815 1.82499
thorax 1.99011 -0.201024 0.932807
lowerneck -9.99541 2.80622 3.36155
upperneck 19.2966 5.20977 -7.32178
head 7.87494 2.21984 -2.44443
rclavicle 5.92627e-015 1.799e-014
rhumerus -19.9583 19.3584 -80.3226
rradius 54.9938
rwrist -10.1881
rhand -10.7179 8.582
rfingers 7.12502
rthumb 15.2922 -20.8327
lclavicle 5.92627e-015 1.799e-014
lhumerus -23.8163 -12.4552 78.1145
lradius 15.9527
lwrist 4.87303
lhand -27.4885 20.606
lfingers 7.12502
lthumb -0.891884 50.5838
rfemur -6.53888 0.899916 27.0546
rtibia 35.2206
rfoot -18.5581 -0.988663
rtoes 17.6063
lfemur -28.5614 13.2726 -19.1835
ltibia 52.7744
lfoot -12.2797 14.3063
ltoes -13.5299
1107
root 40.3679 16.659 -0.592203 -893.478 64.348 -168.528
lowerback 4.49674 -0.472528 2.07124
upperback 4.52096 -0.429403 1.88557
thorax 2.12662 -0.115504 0.791006
lowerneck -10.0318 2.76475 3.30684
upperneck 19.3992 5.18178 -7.33908
head 7.91299 2.20183 -2.44368
rclavicle 4.34841e-017 6.70898e-016
rhumerus -19.0122 19.8019 -79.7324
rradius 55.9129
rwrist -10.1811
rhand -10.6935 8.48441
rfingers 7.12502
rthumb 15.3157 -20.9285
lclavicle 4.34841e-017 6.70898e-016
lhumerus -23.7217 -12.4598 76.6692
lradius 15.399
lwrist 3.45752
lhand -26.5373 20.3371
lfingers 7.12502
lthumb 0.0268253 50.3169
rfemur -5.54631 0.264863 27.3139
rtibia 34.7454
rfoot -18.7769 -0.7097
rtoes 17.7427
lfemur -28.7892 13.1232 -19.5176
ltibia 50.0293
lfoot -12.3102 14.9066
ltoes -14.534
1108
root 40.5405 16.6503 -0.653701 -893.087 64.0265 -168.053
lowerback 4.27203 -0.377875 2.44658
upperback 4.56666 -0.300517 1.95918
thorax 2.29878 -0.0387107 0.65303
lowerneck -10.0496 2.73247 3.24009
upperneck 19.4951 5.16967 -7.35792
head 7.94621 2.19109 -2.43994
rclavicle -1.61109e-014 -4.19933e-015
rhumerus -18.0611 20.2481 -79.1391
rradius 56.7131
rwrist -10.2089
rhand -10.6926 8.3896
rfingers 7.12502
rthumb 15.3166 -21.0232
lclavicle -1.61109e-014 -4.19933e-015
lhumerus -23.7076 -12.6265 75.3228
lradius 14.996
lwrist 2.24985
lhand -25.7595 20.1261
lfingers 7.12502
lthumb 0.778025 50.1044
rfemur -4.52902 -0.305471 27.5885
rtibia 34.2271
rfoot -19.0017 -0.450794
rtoes 17.8008
lfemur -28.9429 13.0317 -19.8533
ltibia 47.2649
lfoot -12.2881 15.5036
ltoes -15.2392
1109
root 40.7158 16.6393 -0.717722 -892.651 63.6819 -167.548
lowerback 3.97494 -0.293735 2.82886
upperback 4.60982 -0.191542 2.04633
thorax 2.51041 0.028955 0.526637
lowerneck -10.0467 2.7074 3.17515
upperneck 19.5882 5.17311 -7.39724
head 7.97636 2.18695 -2.44192
rclavicle -2.69245e-014 2.59787e-014
rhumerus -17.1195 20.69 -78.5399
rradius 57.4028
rwrist -10.2936
rhand -10.6995 8.2982
rfingers 7.12502
rthumb 15.31 -21.1151
lclavicle -2.69245e-014 2.59787e-014
lhumerus -23.7688 -12.9822 74.0913
lradius 14.7395
lwrist 1.32446
lhand -25.2046 19.9675
lfingers 7.12502
lthumb 1.31395 49.9432
rfemur -3.50183 -0.810276 27.879
rtibia 33.675
rfoot -19.239 -0.208996
rtoes 17.8373
lfemur -29.0582 13.0181 -20.2019
ltibia 44.5362
lfoot -12.1894 16.1183
ltoes -15.5962
1110
root 40.8928 16.6258 -0.783344 -892.171 63.3113 -167.024
lowerback 3.60766 -0.217475 3.20862
upperback 4.64564 -0.100231 2.14671
thorax 2.75519 0.0883255 0.416899
lowerneck -10.0268 2.68718 3.10515
upperneck 19.6844 5.18885 -7.44856
head 8.00539 2.18799 -2.44595
rclavicle -1.39069e-014 1.20397e-015
rhumerus -16.2079 21.1261 -77.9408
rradius 57.9973
rwrist -10.4275
rhand -10.7218 8.20449
rfingers 7.12502
rthumb 15.2885 -21.2105
lclavicle -1.39069e-014 1.20397e-015
lhumerus -23.8906 -13.5108 72.9724
lradius 14.6057
lwrist 0.711702
lhand -24.8534 19.8614
lfingers 7.12502
lthumb 1.6532 49.8347
rfemur -2.48743 -1.28057 28.1836
rtibia 33.0988
rfoot -19.4793 0.0317408
rtoes 17.8554
lfemur -29.1713 13.104 -20.5715
ltibia 41.8908
lfoot -12.0146 16.741
ltoes -15.4672
1111
root 41.0706 16.6092 -0.849709 -891.667 62.9066 -166.498
lowerback 3.19174 -0.148056 3.58082
upperback 4.67016 -0.0248746 2.25528
thorax 3.01679 0.140033 0.321405
lowerneck -10.0051 2.67116 3.03404
upperneck 19.8042 5.2157 -7.50494
head 8.04278 2.194 -2.45044
rclavicle 3.64646e-015 3.97942e-014
rhumerus -15.3473 21.5428 -77.3478
rradius 58.5139
rwrist -10.6107
rhand -10.7307 8.11857
rfingers 7.12502
rthumb 15.2799 -21.297
lclavicle 3.64646e-015 3.97942e-014
lhumerus -24.0672 -14.1739 71.9531
lradius 14.5892
lwrist 0.407346
lhand -24.6831 19.8341
lfingers 7.12502
lthumb 1.81764 49.8061
rfemur -1.49106 -1.76458 28.4954
rtibia 32.5082
rfoot -19.7002 0.281689
rtoes 17.8041
lfemur -29.3033 13.3149 -20.9783
ltibia 39.3661
lfoot -11.6945 17.379
ltoes -15.1139
1112
root 41.2486 16.5903 -0.91624 -891.097 62.524 -165.942
lowerback 2.726 -0.0646303 3.94617
upperback 4.67774 0.0615882 2.36915
thorax 3.29055 0.197357 0.236716
lowerneck -9.98311 2.65742 2.9764
upperneck 19.9471 5.24878 -7.56945
head 8.08878 2.20333 -2.45941
rclavicle -8.71236e-015 -1.20762e-014
rhumerus -14.5538 21.9417 -76.7718
rradius 58.9711
rwrist -10.8381
rhand -10.7167 8.03725
rfingers 7.12502
rthumb 15.2934 -21.3773
lclavicle -8.71236e-015 -1.20762e-014
lhumerus -24.2683 -14.9219 71.0126
lradius 14.657
lwrist 0.366983
lhand -24.6538 19.8755
lfingers 7.12502
lthumb 1.84591 49.8473
rfemur -0.541313 -2.27012 28.8062
rtibia 31.9102
rfoot -19.8671 0.58066
rtoes 17.627
lfemur -29.4837 13.6982 -21.4238
ltibia 36.9906
lfoot -11.3038 17.995
ltoes -14.5369
1113
root 41.4262 16.5701 -0.982923 -890.43 62.1884 -165.326
lowerback 2.21802 0.0421017 4.31768
upperback 4.66515 0.17174 2.4863
thorax 3.5695 0.266848 0.153971
lowerneck -9.9718 2.64467 2.93528
upperneck 20.1259 5.2854 -7.63503
head 8.14944 2.21509 -2.47125
rclavicle 6.23563e-014 -5.66536e-015
rhumerus -13.8428 22.312 -76.23
rradius 59.3794
rwrist -11.085
rhand -10.6741 7.95854
rfingers 7.12502
rthumb 15.3344 -21.4529
lclavicle 6.23563e-014 -5.66536e-015
lhumerus -24.4875 -15.7185 70.1341
lradius 14.7931
lwrist 0.548857
lhand -24.7267 19.9732
lfingers 7.12502
lthumb 1.77554 49.9456
rfemur 0.354303 -2.77661 29.1241
rtibia 31.3091
rfoot -19.9678 0.951648
rtoes 17.4658
lfemur -29.7234 14.2491 -21.8957
ltibia 34.7891
lfoot -10.9205 18.5557
ltoes -13.8852
1114
root 41.6039 16.5482 -1.05062 -889.708 61.8676 -164.675
lowerback 1.68299 0.161809 4.70091
upperback 4.63492 0.292598 2.59924
thorax 3.84777 0.342352 0.0627993
lowerneck -9.962 2.62839 2.91937
upperneck 20.3306 5.31761 -7.70549
head 8.21963 2.22616 -2.48963
rclavicle 2.51711e-014 1.81391e-015
rhumerus -13.2284 22.6481 -75.7312
rradius 59.7486
rwrist -11.3283
rhand -10.6089 7.88572
rfingers 7.12502
rthumb 15.3972 -21.5209
lclavicle 2.51711e-014 1.81391e-015
lhumerus -24.7112 -16.5022 69.2937
lradius 14.9703
lwrist 0.863136
lhand -24.8774 20.0819
lfingers 7.12502
lthumb 1.62996 50.0554
rfemur 1.22061 -3.29195 29.4439
rtibia 30.7057
rfoot -20.0185 1.35531
rtoes 17.1744
lfemur -30.0119 14.9247 -22.4016
ltibia 32.7864
lfoot -10.5866 19.0241
ltoes -13.3948
1115
root 41.7818 16.5248 -1.11956 -888.931 61.5562 -163.978
lowerback 1.1308 0.293103 5.10266
upperback 4.58943 0.422778 2.70931
thorax 4.12255 0.423508 -0.038908
lowerneck -9.96219 2.60635 2.919
upperneck 20.5665 5.34159 -7.76834
head 8.30196 2.23482 -2.50912
rclavicle 1.6291e-014 1.09829e-014
rhumerus -12.7153 22.9459 -75.2844
rradius 60.0779
rwrist -11.551
rhand -10.4834 7.81667
rfingers 7.12502
rthumb 15.5181 -21.5806
lclavicle 1.6291e-014 1.09829e-014
lhumerus -24.9282 -17.2403 68.4827
lradius 15.1807
lwrist 1.28041
lhand -25.0808 20.2023
lfingers 7.12502
lthumb 1.43356 50.1772
rfemur 2.07296 -3.77968 29.781
rtibia 30.1023
rfoot -20.0368 1.80018
rtoes 17.012
lfemur -30.353 15.7263 -22.9359
ltibia 31.0096
lfoot -10.3023 19.3847
ltoes -13.1103
1116
root 41.9599 16.5 -1.19007 -888.138 61.2264 -163.262
lowerback 0.57469 0.426591 5.51772
upperback 4.53133 0.550649 2.81504
thorax 4.3888 0.504395 -0.149963
lowerneck -9.97506 2.57857 2.92827
upperneck 20.833 5.3567 -7.81673
head 8.39645 2.24092 -2.52648
rclavicle 2.68763e-014 -5.01434e-014
rhumerus -12.3049 23.213 -74.892
rradius 60.3627
rwrist -11.72
rhand -10.3369 7.75112
rfingers 7.12502
rthumb 15.6592 -21.6352
lclavicle 2.68763e-014 -5.01434e-014
lhumerus -25.1291 -17.8845 67.6884
lradius 15.4062
lwrist 1.75169
lhand -25.3115 20.2767
lfingers 7.12502
lthumb 1.21076 50.253
rfemur 2.9258 -4.23352 30.1368
rtibia 29.5022
rfoot -20.0387 2.25062
rtoes 16.9491
lfemur -30.737 16.6199 -23.4986
ltibia 29.4813
lfoot -10.0966 19.6251
ltoes -12.8503
1117
root 42.138 16.4733 -1.26172 -887.362 60.8597 -162.557
lowerback 0.033524 0.556257 5.93472
upperback 4.46075 0.670076 2.91589
thorax 4.63539 0.581322 -0.265232
lowerneck -10.0079 2.54413 2.93308
upperneck 21.1322 5.36161 -7.83941
head 8.50454 2.2436 -2.53563
rclavicle 1.9661e-015 1.31943e-014
rhumerus -11.993 23.4498 -74.5542
rradius 60.5902
rwrist -11.8131
rhand -10.1875 7.70463
rfingers 7.12502
rthumb 15.8031 -21.6703
lclavicle 1.9661e-015 1.31943e-014
lhumerus -25.3049 -18.4115 66.908
lradius 15.6631
lwrist 2.28191
lhand -25.5509 20.3686
lfingers 7.12502
lthumb 0.979522 50.3461
rfemur 3.78452 -4.65502 30.5107
rtibia 28.9116
rfoot -20.033 2.69188
rtoes 17.0039
lfemur -31.1748 17.6163 -24.1123
ltibia 28.2214
lfoot -9.8163 19.8044
ltoes -12.6392
